<svg width="1920" height="560" viewBox="0 0 1920 560" fill="none" xmlns="http://www.w3.org/2000/svg">
<g opacity="0.2">
<path d="M158.465 97.1563L157.125 94.9839C236.143 45.1001 306.269 16.5515 371.463 7.65727C429.803 -0.302636 483.001 7.78269 534.043 32.3551C628.898 78.0154 699.472 172.007 774.2 271.523C872.005 401.765 973.105 536.435 1133.96 555.447C1276.37 572.317 1299.8 479.231 1329.45 361.415C1351.47 273.806 1376.48 174.509 1457.4 102.08C1550.84 18.4537 1702.16 -13.295 1920 5.0093L1919.79 7.579C1702.66 -10.6664 1551.95 20.8896 1459.06 104.011C1378.73 175.907 1353.84 274.795 1331.89 362.056C1317.48 419.382 1303.83 473.512 1276.06 510.054C1245.23 550.622 1199.97 565.853 1133.67 558.013C971.766 538.86 870.281 403.766 772.169 273.107C697.636 173.863 627.228 80.1272 532.951 34.6866C426.333 -16.6408 307.346 3.1963 158.448 97.1866L158.465 97.1563Z" fill="url(#paint0_linear_8770_17138)"/>
<path d="M142.566 97.9438L141.414 95.9203C434.293 -74.9723 575.498 84.6332 724.995 253.539C836.88 379.949 952.523 510.663 1139.86 515.638C1290.15 519.617 1318.38 433.508 1351.09 333.774C1374.72 261.758 1401.47 180.124 1479.73 122.031C1569.42 55.4256 1712.91 30.2564 1918.39 45.1157L1918.24 47.4429C1713.32 32.6325 1570.34 57.6645 1481.09 123.897C1403.42 181.551 1376.77 262.806 1353.29 334.507C1320.29 435.1 1291.79 522.007 1139.83 517.958C951.495 512.952 835.48 381.862 723.299 255.08C574.428 86.8586 433.832 -72.0331 142.583 97.9135L142.566 97.9438Z" fill="url(#paint1_linear_8770_17138)"/>
<path d="M126.71 98.7147L125.746 96.8419C243.354 34.751 342.871 23.8283 438.91 62.5345C524.286 96.932 595.528 165.798 670.935 238.729C797.518 361.116 928.401 487.608 1145.84 475.878C1303.27 467.362 1336.85 390.879 1372.39 309.92C1423.9 192.56 1482.28 59.5389 1916.77 85.2964L1916.66 87.4108C1483.59 61.7711 1425.53 194.074 1374.27 310.788C1338.46 392.377 1304.63 469.428 1145.95 478.007C1048.24 483.289 958.873 460.578 872.558 408.751C796.366 362.937 731.857 300.555 669.495 240.302C522.17 97.91 383.056 -36.6171 126.676 98.7736L126.71 98.7147Z" fill="url(#paint2_linear_8770_17138)"/>
<path d="M110.857 99.4818L110.109 97.7757C212.105 50.5835 301.026 44.2262 389.932 77.8401C469.183 107.775 538.543 165.672 611.973 226.983C747.145 339.824 900.339 467.707 1151.89 436.071C1315.37 415.533 1353.14 354.311 1393.1 289.533C1448.45 199.818 1505.64 107.065 1915.23 125.401L1915.15 127.256C1506.62 108.984 1449.69 201.262 1394.65 290.519C1354.45 355.713 1316.48 417.291 1152.11 437.945C1039.32 452.102 936.743 435.873 838.521 388.239C751.999 346.315 680.216 286.365 610.797 228.434C461.787 104.035 333.123 -3.36654 110.857 99.4818Z" fill="url(#paint3_linear_8770_17138)"/>
<path d="M94.9589 100.273L94.3828 98.7471C181.147 65.3697 259.158 63.5129 339.942 92.8805C412.099 119.093 477.982 167.185 547.726 218.095C697.652 327.499 867.61 451.5 1157.88 396.365C1324.7 364.67 1370.97 315.91 1411.8 272.847C1472.05 209.305 1524.1 154.426 1913.63 165.559L1913.59 167.202C1524.81 156.067 1472.97 210.714 1412.96 273.963C1371.97 317.17 1325.53 366.18 1158.2 397.937C867.267 453.201 697.004 328.982 546.832 219.393C405.772 116.494 283.964 27.5751 95.0054 100.26L94.9589 100.273Z" fill="url(#paint4_linear_8770_17138)"/>
<path d="M79.1011 101.042L78.7422 99.683C235.858 54.1742 348.033 127.025 477.909 211.363C642.651 318.319 829.381 439.59 1163.95 356.578C1321.99 317.351 1379.15 284.768 1420.91 260.947C1490.1 221.473 1524.88 201.638 1912.07 205.696L1912.05 207.108C1525.2 203.057 1490.58 222.825 1421.58 262.172C1379.78 286.005 1322.49 318.673 1164.27 357.949C1014.8 395.023 881.349 394.454 756.288 356.207C646.829 322.709 560.578 266.72 477.158 212.547C347.557 128.411 235.616 55.6968 79.1011 101.042Z" fill="url(#paint5_linear_8770_17138)"/>
<path d="M63.2204 101.794L63.0156 100.644C188.431 79.1085 287.295 137.896 401.784 205.922C572.09 307.145 784.025 433.088 1169.97 316.832C1213.48 303.741 1249.07 292.827 1280.45 283.209C1392.85 248.776 1482.42 233.644 1549.14 237.813C1609.39 241.593 1710.26 247.863 1910.46 245.873V247.027C1710.22 249.029 1609.36 242.759 1549.08 238.962C1482.48 234.791 1393.05 249.91 1280.79 284.321C1249.41 293.939 1213.82 304.853 1170.31 317.944C998.199 369.795 846.4 378.639 706.291 344.964C584.124 315.626 486.941 257.863 401.239 206.95C286.943 138.997 188.267 80.3592 63.2494 101.812L63.2204 101.794Z" fill="url(#paint6_linear_8770_17138)"/>
<path d="M47.3887 102.539L47.3672 101.615C142.147 99.6431 224.05 146.19 318.932 200.107C501.78 304.046 729.324 433.355 1176.08 277.067C1289.35 237.434 1361.83 218.268 1411.08 214.89C1458.35 211.652 1484.82 222.612 1518.35 236.524C1577.27 260.962 1657.96 294.428 1908.9 286.015L1908.93 286.939C1657.75 295.338 1576.97 261.85 1517.99 237.378C1484.59 223.505 1458.18 212.578 1411.15 215.801C1361.97 219.184 1289.56 238.354 1176.39 277.962C729.261 434.427 501.499 304.952 318.488 200.956C223.723 147.108 141.908 100.613 47.4012 102.586L47.3887 102.539Z" fill="url(#paint7_linear_8770_17138)"/>
<path d="M31.5508 103.27L31.6668 102.586C96.9803 114.207 158.123 149.772 228.894 190.982C411.485 297.227 661.568 442.76 1182.15 237.271C1421.63 142.729 1469.2 181.033 1534.99 234.023C1593.98 281.526 1667.36 340.667 1907.3 326.157L1907.33 326.85C1667.16 341.376 1593.63 282.15 1534.55 234.596C1468.94 181.756 1421.51 143.566 1182.4 237.932C951.242 329.184 754.358 360.217 580.552 332.82C430.644 309.171 323.291 246.715 228.586 191.593C157.826 150.43 96.7598 114.87 31.5798 103.288L31.5508 103.27Z" fill="url(#paint8_linear_8770_17138)"/>
<path d="M223.62 231.277C190.401 211.804 160.064 191.722 132.043 173.195C91.3149 146.269 52.8318 120.817 15.7148 104.011L15.9345 103.625C53.0515 120.43 91.5346 145.882 132.292 172.826C212.681 226.014 305.941 287.658 435.094 319.189C385.075 307.024 336.63 289.482 288.32 266.075C265.565 255.034 244.062 243.3 223.603 231.308L223.62 231.277ZM674.46 338.143C811.806 329.187 979.27 288.676 1188.24 197.486C1301.63 148.021 1381.78 131.614 1440.54 145.849C1493.64 158.708 1524.63 195.618 1557.45 234.669C1617.26 305.866 1685.03 386.526 1905.68 366.26L1905.73 366.724C1807.23 375.787 1730.39 365.369 1670.82 334.927C1618.66 308.273 1587.37 270.991 1557.09 234.97C1524.33 195.953 1493.36 159.136 1440.43 146.303C1381.78 132.09 1301.67 148.485 1188.42 197.912C1114.14 230.328 1042.1 257.515 974.3 278.749C910.479 298.75 848.526 314.023 790.223 324.183C750.646 331.057 711.88 335.75 674.46 338.143Z" fill="url(#paint9_linear_8770_17138)"/>
<path d="M141.688 222.878C99.8117 193.1 64.4231 161.656 32.3711 133.198C21.0922 123.18 10.4027 113.703 0 104.752L0.118547 104.545C10.5967 113.5 21.2398 122.989 32.5477 133.025C64.8293 161.696 100.306 193.192 141.717 222.896L141.688 222.878ZM927.543 267.513C1008.71 239.853 1097.33 203.76 1194.31 157.707C1225.75 142.773 1255.31 130.662 1282.2 121.662C1307.93 113.053 1332.12 107.025 1354.06 103.72C1394.81 97.6082 1429.19 100.411 1459.29 112.345C1515.44 134.647 1547.79 185.431 1582.06 239.236C1613.73 289.024 1647.77 342.462 1705.22 376.142C1752.11 403.628 1814.57 417.935 1904.13 406.406L1904.16 406.623C1879.95 409.744 1856.82 411.086 1835.47 410.615C1815.19 410.179 1795.83 408.06 1777.96 404.358C1745.11 397.544 1716.41 385.433 1690.33 367.333C1642.04 333.873 1611.47 285.796 1581.88 239.333C1552.25 192.758 1523.99 148.42 1480.53 122.942C1473.83 119.013 1466.75 115.538 1459.24 112.558C1396.35 87.6173 1312.22 102.015 1194.46 157.916C1105.18 200.318 1019.26 235.852 939.07 263.573C935.237 264.892 931.405 266.211 927.588 267.501L927.543 267.513Z" fill="url(#paint10_linear_8770_17138)"/>
</g>
<defs>
<linearGradient id="paint0_linear_8770_17138" x1="1278.57" y1="-371.004" x2="787.831" y2="466.14" gradientUnits="userSpaceOnUse">
<stop stop-color="#D569F7"/>
<stop offset="1" stop-color="#6CE7EE"/>
</linearGradient>
<linearGradient id="paint1_linear_8770_17138" x1="1263.3" y1="-338.91" x2="786.068" y2="475.174" gradientUnits="userSpaceOnUse">
<stop stop-color="#D569F7"/>
<stop offset="1" stop-color="#6CE7EE"/>
</linearGradient>
<linearGradient id="paint2_linear_8770_17138" x1="1248.01" y1="-306.742" x2="784.297" y2="484.281" gradientUnits="userSpaceOnUse">
<stop stop-color="#D569F7"/>
<stop offset="1" stop-color="#6CE7EE"/>
</linearGradient>
<linearGradient id="paint3_linear_8770_17138" x1="1232.79" y1="-274.659" x2="782.611" y2="493.274" gradientUnits="userSpaceOnUse">
<stop stop-color="#D569F7"/>
<stop offset="1" stop-color="#6CE7EE"/>
</linearGradient>
<linearGradient id="paint4_linear_8770_17138" x1="1217.5" y1="-242.521" x2="780.847" y2="502.351" gradientUnits="userSpaceOnUse">
<stop stop-color="#D569F7"/>
<stop offset="1" stop-color="#6CE7EE"/>
</linearGradient>
<linearGradient id="paint5_linear_8770_17138" x1="1202.26" y1="-210.406" x2="779.122" y2="511.406" gradientUnits="userSpaceOnUse">
<stop stop-color="#D569F7"/>
<stop offset="1" stop-color="#6CE7EE"/>
</linearGradient>
<linearGradient id="paint6_linear_8770_17138" x1="1186.94" y1="-178.257" x2="777.361" y2="520.434" gradientUnits="userSpaceOnUse">
<stop stop-color="#D569F7"/>
<stop offset="1" stop-color="#6CE7EE"/>
</linearGradient>
<linearGradient id="paint7_linear_8770_17138" x1="1171.71" y1="-146.137" x2="775.646" y2="529.494" gradientUnits="userSpaceOnUse">
<stop stop-color="#D569F7"/>
<stop offset="1" stop-color="#6CE7EE"/>
</linearGradient>
<linearGradient id="paint8_linear_8770_17138" x1="1156.42" y1="-114.017" x2="773.931" y2="538.465" gradientUnits="userSpaceOnUse">
<stop stop-color="#D569F7"/>
<stop offset="1" stop-color="#6CE7EE"/>
</linearGradient>
<linearGradient id="paint9_linear_8770_17138" x1="1141.14" y1="-81.9265" x2="769.816" y2="551.506" gradientUnits="userSpaceOnUse">
<stop stop-color="#D569F7"/>
<stop offset="1" stop-color="#6CE7EE"/>
</linearGradient>
<linearGradient id="paint10_linear_8770_17138" x1="1140.9" y1="-76.376" x2="754.782" y2="582.283" gradientUnits="userSpaceOnUse">
<stop stop-color="#D569F7"/>
<stop offset="1" stop-color="#6CE7EE"/>
</linearGradient>
</defs>
</svg>
