<svg xmlns="http://www.w3.org/2000/svg" width="80" height="90" viewBox="0 0 80 90" fill="none">
<g clip-path="url(#clip0_3619_15667)">
<path d="M0 46.5253C0 40.9892 2.86179 35.8465 7.56631 32.9285L55.5663 3.15548C66.2249 -3.45574 80 4.20979 80 16.7523V74C80 82.8366 72.8366 90 64 90H16C7.16344 90 0 82.8366 0 74V46.5253Z" fill="white" fill-opacity="0.8"/>
<path d="M27.1504 54.9993V46.1193H28.3264V49.9713H32.5624V46.1193H33.7384V54.9993H32.5624V51.0273H28.3264V54.9993H27.1504Z" fill="#333333"/>
<path d="M38.6102 55.1193C37.9302 55.1193 37.3582 54.9633 36.8942 54.6513C36.4302 54.3313 36.0782 53.9193 35.8382 53.4153C35.5982 52.9113 35.4782 52.3793 35.4782 51.8193C35.4782 51.2513 35.5982 50.7193 35.8382 50.2233C36.0782 49.7193 36.4302 49.3113 36.8942 48.9993C37.3582 48.6793 37.9302 48.5193 38.6102 48.5193C39.2902 48.5193 39.8622 48.6793 40.3262 48.9993C40.7902 49.3113 41.1422 49.7193 41.3822 50.2233C41.6222 50.7193 41.7422 51.2513 41.7422 51.8193C41.7422 52.3793 41.6222 52.9113 41.3822 53.4153C41.1422 53.9193 40.7902 54.3313 40.3262 54.6513C39.8622 54.9633 39.2902 55.1193 38.6102 55.1193ZM38.6102 54.1233C39.0422 54.1233 39.4022 54.0153 39.6902 53.7993C39.9862 53.5753 40.2062 53.2873 40.3502 52.9353C40.5022 52.5833 40.5782 52.2113 40.5782 51.8193C40.5782 51.4193 40.5022 51.0473 40.3502 50.7033C40.2062 50.3513 39.9862 50.0673 39.6902 49.8513C39.4022 49.6273 39.0422 49.5153 38.6102 49.5153C38.1862 49.5153 37.8262 49.6273 37.5302 49.8513C37.2342 50.0673 37.0102 50.3513 36.8582 50.7033C36.7142 51.0473 36.6422 51.4193 36.6422 51.8193C36.6422 52.2113 36.7142 52.5833 36.8582 52.9353C37.0102 53.2873 37.2342 53.5753 37.5302 53.7993C37.8262 54.0153 38.1862 54.1233 38.6102 54.1233ZM38.6102 57.7233C38.3862 57.7233 38.1982 57.6433 38.0462 57.4833C37.9022 57.3313 37.8302 57.1513 37.8302 56.9433C37.8302 56.7273 37.9022 56.5433 38.0462 56.3913C38.1982 56.2393 38.3862 56.1633 38.6102 56.1633C38.8342 56.1633 39.0182 56.2393 39.1622 56.3913C39.3142 56.5433 39.3902 56.7273 39.3902 56.9433C39.3902 57.1593 39.3142 57.3433 39.1622 57.4953C39.0182 57.6473 38.8342 57.7233 38.6102 57.7233Z" fill="#333333"/>
<path d="M46.3197 55.1193C45.7997 55.1193 45.3437 55.0273 44.9517 54.8433C44.5597 54.6513 44.2317 54.3993 43.9677 54.0873C43.7117 53.7673 43.5157 53.4113 43.3797 53.0193C43.2517 52.6273 43.1877 52.2273 43.1877 51.8193C43.1877 51.4113 43.2517 51.0153 43.3797 50.6313C43.5077 50.2393 43.6997 49.8833 43.9557 49.5633C44.2197 49.2433 44.5477 48.9913 44.9397 48.8073C45.3317 48.6153 45.7917 48.5193 46.3197 48.5193C46.8317 48.5193 47.2557 48.5953 47.5917 48.7473C47.9277 48.8993 48.1957 49.0913 48.3957 49.3233C48.6037 49.5473 48.7557 49.7753 48.8517 50.0073C48.9557 50.2313 49.0237 50.4193 49.0557 50.5713C49.0877 50.7233 49.1037 50.7993 49.1037 50.7993H47.9997C47.9997 50.7993 47.9797 50.7353 47.9397 50.6073C47.8997 50.4713 47.8237 50.3193 47.7117 50.1513C47.5997 49.9833 47.4317 49.8353 47.2077 49.7073C46.9837 49.5713 46.6877 49.5033 46.3197 49.5033C45.8797 49.5033 45.5077 49.6153 45.2037 49.8393C44.9077 50.0553 44.6837 50.3393 44.5317 50.6913C44.3877 51.0433 44.3157 51.4193 44.3157 51.8193C44.3157 52.2193 44.3877 52.5953 44.5317 52.9473C44.6837 53.2993 44.9077 53.5873 45.2037 53.8113C45.5077 54.0273 45.8797 54.1353 46.3197 54.1353C46.6877 54.1353 46.9837 54.0713 47.2077 53.9433C47.4317 53.8073 47.5997 53.6553 47.7117 53.4873C47.8237 53.3193 47.8997 53.1713 47.9397 53.0433C47.9797 52.9073 47.9997 52.8393 47.9997 52.8393H49.1037C49.1037 52.8393 49.0877 52.9153 49.0557 53.0673C49.0237 53.2193 48.9557 53.4113 48.8517 53.6433C48.7557 53.8673 48.6037 54.0953 48.3957 54.3273C48.1957 54.5513 47.9277 54.7393 47.5917 54.8913C47.2557 55.0433 46.8317 55.1193 46.3197 55.1193Z" fill="#333333"/>
<path d="M56.1327 55.1193C55.4767 55.1193 54.9807 54.9513 54.6447 54.6153C54.3167 54.2793 54.1527 53.8073 54.1527 53.1993V49.5753H53.0127V48.6393H54.1527V47.0433H55.2927V48.6393H56.8407V49.5753H55.2927V53.1993C55.2927 53.5193 55.3807 53.7553 55.5567 53.9073C55.7327 54.0513 55.9887 54.1233 56.3247 54.1233C56.5007 54.1233 56.6687 54.1113 56.8287 54.0873C56.9887 54.0633 57.0687 54.0513 57.0687 54.0513V55.0233C57.0687 55.0233 56.9767 55.0393 56.7927 55.0713C56.6087 55.1033 56.3887 55.1193 56.1327 55.1193Z" fill="#333333"/>
<path d="M58.6855 54.9993V45.8793H59.8255V49.5633H59.8975C59.9535 49.4673 60.0455 49.3353 60.1735 49.1673C60.3095 48.9993 60.5015 48.8513 60.7495 48.7233C60.9975 48.5873 61.3095 48.5193 61.6855 48.5193C62.1495 48.5193 62.5455 48.6273 62.8735 48.8433C63.2015 49.0513 63.4495 49.3353 63.6175 49.6953C63.7935 50.0553 63.8815 50.4593 63.8815 50.9073V54.9993H62.7415V50.9793C62.7415 50.5553 62.6215 50.2033 62.3815 49.9233C62.1495 49.6433 61.8095 49.5033 61.3615 49.5033C61.0015 49.5033 60.7095 49.5953 60.4855 49.7793C60.2615 49.9553 60.0935 50.1913 59.9815 50.4873C59.8775 50.7753 59.8255 51.0833 59.8255 51.4113V54.9993H58.6855Z" fill="#333333"/>
<path d="M67.7936 47.7633V47.3793C67.7936 47.2993 67.8096 47.2193 67.8416 47.1393C67.8736 47.0593 67.9376 46.9953 68.0336 46.9473L68.2016 46.8633C68.5696 46.6793 68.7536 46.4753 68.7536 46.2513C68.7536 46.1393 68.7096 46.0393 68.6216 45.9513C68.5416 45.8553 68.4096 45.8073 68.2256 45.8073C68.0656 45.8073 67.9456 45.8433 67.8656 45.9153C67.7936 45.9793 67.7456 46.0513 67.7216 46.1313C67.6976 46.2113 67.6856 46.2753 67.6856 46.3233H66.8936C66.8936 46.1233 66.9376 45.9313 67.0256 45.7473C67.1216 45.5633 67.2656 45.4113 67.4576 45.2913C67.6496 45.1713 67.9016 45.1113 68.2136 45.1113C68.6376 45.1113 68.9696 45.2233 69.2096 45.4473C69.4576 45.6633 69.5816 45.9233 69.5816 46.2273C69.5816 46.4513 69.5056 46.6633 69.3536 46.8633C69.2016 47.0553 68.9576 47.2313 68.6216 47.3913L68.5736 47.4153V47.7633H67.7936ZM67.8176 55.1193C67.1856 55.1193 66.6816 54.9233 66.3056 54.5313C65.9296 54.1393 65.7416 53.5953 65.7416 52.8993V48.6393H66.8816V52.8393C66.8816 53.2553 66.9936 53.5753 67.2176 53.7993C67.4496 54.0233 67.7536 54.1353 68.1296 54.1353C68.5136 54.1353 68.8216 54.0353 69.0536 53.8353C69.2856 53.6353 69.4536 53.3793 69.5576 53.0673C69.6616 52.7553 69.7136 52.4353 69.7136 52.1073V48.6393H70.6856C70.9976 48.6393 71.1536 48.4753 71.1536 48.1473V47.4273H72.1616V48.1473C72.1616 48.5153 72.0656 48.8113 71.8736 49.0353C71.6816 49.2593 71.3896 49.3713 70.9976 49.3713H70.8536V54.9993H69.7136V54.0873H69.6416C69.5936 54.1833 69.5016 54.3153 69.3656 54.4833C69.2296 54.6433 69.0376 54.7913 68.7896 54.9273C68.5416 55.0553 68.2176 55.1193 67.8176 55.1193Z" fill="#333333"/>
<path d="M5.51758 76.0006V64.1606H8.84558L11.5496 70.2566L14.3336 64.1606H17.5496V76.0006H15.1176V67.9366L12.6856 73.2326H10.3976L7.94958 67.9046V76.0006H5.51758Z" fill="#FF6609"/>
<path d="M21.0007 66.3686C20.574 66.3686 20.2274 66.2352 19.9607 65.9686C19.694 65.6912 19.5607 65.3659 19.5607 64.9926C19.5607 64.5979 19.694 64.2672 19.9607 64.0006C20.2274 63.7232 20.574 63.5846 21.0007 63.5846C21.406 63.5846 21.7474 63.7232 22.0247 64.0006C22.302 64.2672 22.4407 64.5979 22.4407 64.9926C22.4407 65.3659 22.302 65.6912 22.0247 65.9686C21.7474 66.2352 21.406 66.3686 21.0007 66.3686ZM19.7847 76.0006V67.5206H22.2167V76.0006H19.7847Z" fill="#FF6609"/>
<path d="M29.5751 63.4246C29.2871 63.4246 29.0364 63.3766 28.8231 63.2806C28.6204 63.1739 28.4391 63.0566 28.2791 62.9286C28.1297 62.8006 27.9857 62.6886 27.8471 62.5926C27.7191 62.4859 27.5804 62.4326 27.4311 62.4326C27.2604 62.4326 27.1431 62.5126 27.0791 62.6726C27.0151 62.8326 26.9831 63.0512 26.9831 63.3286H25.6711C25.6711 62.9766 25.7137 62.6192 25.7991 62.2566C25.8844 61.8939 26.0444 61.5899 26.2791 61.3446C26.5137 61.0992 26.8497 60.9766 27.2871 60.9766C27.5751 60.9766 27.8257 61.0246 28.0391 61.1206C28.2524 61.2166 28.4391 61.3339 28.5991 61.4726C28.7591 61.6006 28.9031 61.7126 29.0311 61.8086C29.1697 61.9046 29.3084 61.9526 29.4471 61.9526C29.7351 61.9526 29.8791 61.6539 29.8791 61.0566H31.1911C31.1911 61.4086 31.1484 61.7712 31.0631 62.1446C30.9777 62.5072 30.8177 62.8112 30.5831 63.0566C30.3591 63.3019 30.0231 63.4246 29.5751 63.4246ZM25.3991 66.4646L27.4631 64.0006H29.3991L31.4631 66.4646H29.5591L28.4231 65.1046L27.3031 66.4646H25.3991ZM28.5191 76.1606C27.7724 76.1606 27.1271 76.0379 26.5831 75.7926C26.0391 75.5366 25.5911 75.2006 25.2391 74.7846C24.8871 74.3579 24.6204 73.8832 24.4391 73.3606C24.2684 72.8379 24.1831 72.2992 24.1831 71.7446C24.1831 71.2112 24.2684 70.6886 24.4391 70.1766C24.6097 69.6539 24.8657 69.1792 25.2071 68.7526C25.5591 68.3259 26.0017 67.9899 26.5351 67.7446C27.0684 67.4886 27.7031 67.3606 28.4391 67.3606C29.2284 67.3606 29.9217 67.5312 30.5191 67.8726C31.1164 68.2139 31.5857 68.7206 31.9271 69.3926C32.2684 70.0539 32.4391 70.8592 32.4391 71.8086V72.4006H26.6311C26.6631 72.9126 26.8391 73.3552 27.1591 73.7286C27.4897 74.1019 27.9431 74.2886 28.5191 74.2886C28.8497 74.2886 29.1164 74.2406 29.3191 74.1446C29.5324 74.0379 29.6977 73.9206 29.8151 73.7926C29.9324 73.6539 30.0124 73.5312 30.0551 73.4246C30.1084 73.3179 30.1351 73.2646 30.1351 73.2646H32.3751C32.3751 73.2646 32.3484 73.3659 32.2951 73.5686C32.2417 73.7606 32.1404 74.0006 31.9911 74.2886C31.8417 74.5766 31.6231 74.8646 31.3351 75.1526C31.0577 75.4406 30.6897 75.6806 30.2311 75.8726C29.7724 76.0646 29.2017 76.1606 28.5191 76.1606ZM26.6311 70.9286H30.1031C30.0817 70.3419 29.9057 69.9046 29.5751 69.6166C29.2551 69.3286 28.8604 69.1846 28.3911 69.1846C27.9217 69.1846 27.5217 69.3392 27.1911 69.6486C26.8711 69.9472 26.6844 70.3739 26.6311 70.9286Z" fill="#FF6609"/>
<path d="M34.092 76.0006V67.5206H36.524V68.7366H36.604C36.7 68.5659 36.8386 68.3739 37.02 68.1606C37.212 67.9472 37.4626 67.7606 37.772 67.6006C38.092 67.4406 38.4973 67.3606 38.988 67.3606C39.6493 67.3606 40.188 67.5152 40.604 67.8246C41.02 68.1232 41.324 68.5126 41.516 68.9926C41.708 69.4619 41.804 69.9579 41.804 70.4806V76.0006H39.372V70.8966C39.372 70.4912 39.26 70.1339 39.036 69.8246C38.8226 69.5152 38.476 69.3606 37.996 69.3606C37.6333 69.3606 37.3453 69.4459 37.132 69.6166C36.9186 69.7872 36.764 70.0059 36.668 70.2726C36.572 70.5392 36.524 70.8219 36.524 71.1206V76.0006H34.092Z" fill="#FF6609"/>
<path d="M47.502 79.1206V67.5206H49.934V68.6086H50.046C50.0993 68.5339 50.2166 68.3952 50.398 68.1926C50.59 67.9899 50.8619 67.8032 51.214 67.6326C51.566 67.4512 52.014 67.3606 52.558 67.3606C53.1873 67.3606 53.7313 67.4886 54.19 67.7446C54.6593 67.9899 55.0486 68.3259 55.358 68.7526C55.6673 69.1686 55.8966 69.6379 56.046 70.1606C56.206 70.6832 56.286 71.2166 56.286 71.7606C56.286 72.3046 56.206 72.8379 56.046 73.3606C55.8966 73.8832 55.6673 74.3579 55.358 74.7846C55.0486 75.2006 54.6593 75.5366 54.19 75.7926C53.7313 76.0379 53.1873 76.1606 52.558 76.1606C52.014 76.1606 51.566 76.0752 51.214 75.9046C50.8619 75.7232 50.59 75.5312 50.398 75.3286C50.2166 75.1259 50.0993 74.9872 50.046 74.9126H49.934V79.1206H47.502ZM49.886 71.7606C49.886 72.1552 49.9553 72.5392 50.094 72.9126C50.2433 73.2859 50.462 73.5952 50.75 73.8406C51.0486 74.0752 51.4166 74.1926 51.854 74.1926C52.2913 74.1926 52.654 74.0752 52.942 73.8406C53.2406 73.5952 53.4593 73.2859 53.598 72.9126C53.7473 72.5392 53.822 72.1552 53.822 71.7606C53.822 71.3659 53.7473 70.9819 53.598 70.6086C53.4593 70.2352 53.2406 69.9312 52.942 69.6966C52.654 69.4512 52.2913 69.3286 51.854 69.3286C51.4166 69.3286 51.0486 69.4512 50.75 69.6966C50.462 69.9312 50.2433 70.2352 50.094 70.6086C49.9553 70.9819 49.886 71.3659 49.886 71.7606Z" fill="#FF6609"/>
<path d="M58.0957 76.0006V63.8406H60.5277V68.7366H60.6077C60.7037 68.5659 60.8424 68.3739 61.0237 68.1606C61.2157 67.9472 61.4664 67.7606 61.7757 67.6006C62.0957 67.4406 62.501 67.3606 62.9917 67.3606C63.653 67.3606 64.1917 67.5152 64.6077 67.8246C65.0237 68.1232 65.3277 68.5126 65.5197 68.9926C65.7117 69.4619 65.8077 69.9579 65.8077 70.4806V76.0006H63.3757V70.8966C63.3757 70.4912 63.2637 70.1339 63.0397 69.8246C62.8264 69.5152 62.4797 69.3606 61.9997 69.3606C61.637 69.3606 61.349 69.4459 61.1357 69.6166C60.9224 69.7872 60.7677 70.0059 60.6717 70.2726C60.5757 70.5392 60.5277 70.8219 60.5277 71.1206V76.0006H58.0957Z" fill="#FF6609"/>
<path d="M70.0701 66.3526L68.2781 66.3366L69.5581 63.4566H71.8301L70.0701 66.3526ZM67.9421 76.0006V67.5206H70.3741V76.0006H67.9421Z" fill="#FF6609"/>
<path d="M61 21.1562L62.1875 19.2188C62.6562 18.4688 63.5 18 64.4062 18H64.5C65.875 18 67 19.125 67 20.5C67 21.0938 66.8125 21.5938 66.5 22H68C69.0938 22 70 22.9062 70 24V32C70 33.125 69.0938 34 68 34H54C52.875 34 52 33.125 52 32V24C52 22.9062 52.875 22 54 22H55.4688C55.1562 21.5938 55 21.0938 55 20.5C55 19.125 56.0938 18 57.5 18H57.5625C58.4688 18 59.3125 18.4688 59.7812 19.2188L61 21.1562ZM64.4062 19C63.8438 19 63.3438 19.3125 63.0312 19.75L61.625 22H64.5C65.3125 22 66 21.3438 66 20.5C66 19.6875 65.3125 19 64.5 19H64.4062ZM60.3438 22L58.9375 19.75C58.625 19.3125 58.125 19 57.5625 19H57.5C56.6562 19 56 19.6875 56 20.5C56 21.3438 56.6562 22 57.5 22H60.3438ZM54 23C53.4375 23 53 23.4688 53 24V27H69V24C69 23.4688 68.5312 23 68 23H62.0625L63.875 25.1875C64.0312 25.4062 64.0312 25.7188 63.8125 25.9062C63.5938 26.0625 63.2812 26.0312 63.0938 25.8438L61 23.2812L58.875 25.8438C58.6875 26.0312 58.375 26.0625 58.1562 25.9062C57.9375 25.7188 57.9375 25.4062 58.0938 25.1875L59.9062 23H54ZM53 28V30H69V28H53ZM69 32V31H53V32C53 32.5625 53.4375 33 54 33H68C68.5312 33 69 32.5625 69 32Z" fill="#333333"/>
</g>
<defs>
<clipPath id="clip0_3619_15667">
<rect width="80" height="90" fill="white"/>
</clipPath>
</defs>
</svg>