                <svg width="102" height="98" viewBox="0 0 102 98" fill="none" xmlns="http://www.w3.org/2000/svg">
                <path d="M0 52.2968C0 46.3056 3.34711 40.8164 8.67324 38.0729L78.6733 2.01568C89.3218 -3.46942 102 4.26135 102 16.2396V82C102 90.8366 94.8366 98 86 98H16C7.16344 98 0 90.8366 0 82V52.2968Z" fill="white" fill-opacity="0.8"/>
                <path d="M12.7219 53.1202C12.0259 53.1202 11.4259 52.9882 10.9219 52.7242C10.4179 52.4522 10.0259 52.0722 9.74589 51.5842C9.47389 51.0882 9.33789 50.5042 9.33789 49.8322V44.1202H10.5139V49.8322C10.5139 50.4482 10.6939 50.9642 11.0539 51.3802C11.4219 51.7962 11.9779 52.0042 12.7219 52.0042C13.4739 52.0042 14.0299 51.7962 14.3899 51.3802C14.7579 50.9642 14.9419 50.4482 14.9419 49.8322V44.1202H15.9739C16.2859 44.1202 16.4419 43.9562 16.4419 43.6282V42.9082H17.5339V43.6162C17.5339 43.9682 17.4339 44.2682 17.2339 44.5162C17.0339 44.7642 16.7299 44.8882 16.3219 44.8882H16.1179V49.8322C16.1179 50.5042 15.9779 51.0882 15.6979 51.5842C15.4259 52.0722 15.0379 52.4522 14.5339 52.7242C14.0299 52.9882 13.4259 53.1202 12.7219 53.1202Z" fill="#333333"/>
                <path d="M20.1153 53.1202C19.4833 53.1202 18.9793 52.9242 18.6033 52.5322C18.2273 52.1402 18.0393 51.5962 18.0393 50.9002V46.6402H19.1793V50.8402C19.1793 51.2562 19.2913 51.5762 19.5153 51.8002C19.7473 52.0242 20.0513 52.1362 20.4273 52.1362C20.8113 52.1362 21.1193 52.0362 21.3513 51.8362C21.5833 51.6362 21.7513 51.3802 21.8553 51.0682C21.9593 50.7562 22.0113 50.4362 22.0113 50.1082V46.6402H23.1513V53.0002H22.0113V52.0882H21.9393C21.8913 52.1842 21.7993 52.3162 21.6633 52.4842C21.5273 52.6442 21.3353 52.7922 21.0873 52.9282C20.8393 53.0562 20.5153 53.1202 20.1153 53.1202Z" fill="#333333"/>
                <path d="M30.3618 53.1202C29.8818 53.1202 29.4618 53.0282 29.1018 52.8442C28.7418 52.6522 28.4418 52.4002 28.2018 52.0882C27.9618 51.7682 27.7818 51.4122 27.6618 51.0202C27.5418 50.6282 27.4818 50.2282 27.4818 49.8202C27.4818 49.4122 27.5418 49.0122 27.6618 48.6202C27.7818 48.2282 27.9618 47.8762 28.2018 47.5642C28.4418 47.2442 28.7418 46.9922 29.1018 46.8082C29.4618 46.6162 29.8818 46.5202 30.3618 46.5202C30.7618 46.5202 31.0978 46.5842 31.3698 46.7122C31.6418 46.8402 31.8618 46.9922 32.0298 47.1682C32.1978 47.3362 32.3258 47.4962 32.4138 47.6482H32.4858V45.9442H30.8178V45.0322H32.4858V43.8802H33.6258V45.0322H34.7178V45.9442H33.6258V53.0002H32.4858V51.9922H32.4138C32.3258 52.1442 32.1978 52.3082 32.0298 52.4842C31.8618 52.6602 31.6418 52.8122 31.3698 52.9402C31.0978 53.0602 30.7618 53.1202 30.3618 53.1202ZM30.5538 52.1482C30.9778 52.1482 31.3298 52.0362 31.6098 51.8122C31.8978 51.5802 32.1098 51.2882 32.2458 50.9362C32.3898 50.5762 32.4618 50.2042 32.4618 49.8202C32.4618 49.4282 32.3898 49.0562 32.2458 48.7042C32.1098 48.3522 31.8978 48.0642 31.6098 47.8402C31.3298 47.6082 30.9778 47.4922 30.5538 47.4922C30.1298 47.4922 29.7738 47.6082 29.4858 47.8402C29.1978 48.0642 28.9818 48.3522 28.8378 48.7042C28.7018 49.0562 28.6338 49.4282 28.6338 49.8202C28.6338 50.2042 28.7018 50.5762 28.8378 50.9362C28.9818 51.2882 29.1978 51.5802 29.4858 51.8122C29.7738 52.0362 30.1298 52.1482 30.5538 52.1482Z" fill="#333333"/>
                <path d="M39.6815 45.5962C39.4655 45.5962 39.2815 45.5562 39.1295 45.4762C38.9855 45.3962 38.8575 45.3042 38.7455 45.2002C38.6415 45.0962 38.5415 45.0042 38.4455 44.9242C38.3495 44.8442 38.2455 44.8042 38.1335 44.8042C37.9975 44.8042 37.8975 44.8722 37.8335 45.0082C37.7775 45.1362 37.7495 45.3082 37.7495 45.5242H36.9815C36.9815 45.2762 37.0095 45.0362 37.0655 44.8042C37.1295 44.5642 37.2415 44.3682 37.4015 44.2162C37.5615 44.0562 37.7815 43.9762 38.0615 43.9762C38.2775 43.9762 38.4615 44.0162 38.6135 44.0962C38.7655 44.1762 38.8935 44.2682 38.9975 44.3722C39.1095 44.4682 39.2135 44.5562 39.3095 44.6362C39.4055 44.7162 39.5055 44.7562 39.6095 44.7562C39.7375 44.7562 39.8295 44.6922 39.8855 44.5642C39.9495 44.4362 39.9815 44.2602 39.9815 44.0362H40.7495C40.7495 44.2842 40.7175 44.5282 40.6535 44.7682C40.5975 45.0082 40.4895 45.2082 40.3295 45.3682C40.1775 45.5202 39.9615 45.5962 39.6815 45.5962ZM38.6015 46.5202C39.0015 46.5202 39.3375 46.5842 39.6095 46.7122C39.8815 46.8402 40.1015 46.9922 40.2695 47.1682C40.4375 47.3362 40.5655 47.4962 40.6535 47.6482H40.7255V46.6402H41.8655V53.0002H40.7255V51.9922H40.6535C40.5655 52.1442 40.4375 52.3082 40.2695 52.4842C40.1015 52.6602 39.8815 52.8122 39.6095 52.9402C39.3375 53.0602 39.0015 53.1202 38.6015 53.1202C38.1215 53.1202 37.7015 53.0282 37.3415 52.8442C36.9815 52.6522 36.6815 52.4002 36.4415 52.0882C36.2015 51.7682 36.0215 51.4122 35.9015 51.0202C35.7815 50.6282 35.7215 50.2282 35.7215 49.8202C35.7215 49.4122 35.7815 49.0122 35.9015 48.6202C36.0215 48.2282 36.2015 47.8762 36.4415 47.5642C36.6815 47.2442 36.9815 46.9922 37.3415 46.8082C37.7015 46.6162 38.1215 46.5202 38.6015 46.5202ZM38.7935 47.4922C38.3695 47.4922 38.0135 47.6082 37.7255 47.8402C37.4375 48.0642 37.2215 48.3522 37.0775 48.7042C36.9415 49.0562 36.8735 49.4282 36.8735 49.8202C36.8735 50.2042 36.9415 50.5762 37.0775 50.9362C37.2215 51.2882 37.4375 51.5802 37.7255 51.8122C38.0135 52.0362 38.3695 52.1482 38.7935 52.1482C39.2175 52.1482 39.5695 52.0362 39.8495 51.8122C40.1375 51.5802 40.3495 51.2882 40.4855 50.9362C40.6295 50.5762 40.7015 50.2042 40.7015 49.8202C40.7015 49.4282 40.6295 49.0562 40.4855 48.7042C40.3495 48.3522 40.1375 48.0642 39.8495 47.8402C39.5695 47.6082 39.2175 47.4922 38.7935 47.4922Z" fill="#333333"/>
                <path d="M44.3653 45.4282C44.1493 45.4282 43.9693 45.3562 43.8253 45.2122C43.6893 45.0682 43.6213 44.8962 43.6213 44.6962C43.6213 44.4882 43.6893 44.3122 43.8253 44.1682C43.9693 44.0242 44.1493 43.9522 44.3653 43.9522C44.5733 43.9522 44.7493 44.0242 44.8933 44.1682C45.0373 44.3122 45.1093 44.4882 45.1093 44.6962C45.1093 44.8962 45.0373 45.0682 44.8933 45.2122C44.7493 45.3562 44.5733 45.4282 44.3653 45.4282ZM43.8013 53.0002V46.6402H44.9413V53.0002H43.8013Z" fill="#333333"/>
                <path d="M49.671 53.0002V43.8802H50.811V47.5642H50.883C50.939 47.4682 51.031 47.3362 51.159 47.1682C51.295 47.0002 51.487 46.8522 51.735 46.7242C51.983 46.5882 52.295 46.5202 52.671 46.5202C53.135 46.5202 53.531 46.6282 53.859 46.8442C54.187 47.0522 54.435 47.3362 54.603 47.6962C54.779 48.0562 54.867 48.4602 54.867 48.9082V53.0002H53.727V48.9802C53.727 48.5562 53.607 48.2042 53.367 47.9242C53.135 47.6442 52.795 47.5042 52.347 47.5042C51.987 47.5042 51.695 47.5962 51.471 47.7802C51.247 47.9562 51.079 48.1922 50.967 48.4882C50.863 48.7762 50.811 49.0842 50.811 49.4122V53.0002H49.671Z" fill="#333333"/>
                <path d="M59.6191 53.1202C58.9391 53.1202 58.3671 52.9642 57.9031 52.6522C57.4391 52.3322 57.0871 51.9202 56.8471 51.4162C56.6071 50.9122 56.4871 50.3802 56.4871 49.8202C56.4871 49.2522 56.6071 48.7202 56.8471 48.2242C57.0871 47.7202 57.4391 47.3122 57.9031 47.0002C58.3671 46.6802 58.9391 46.5202 59.6191 46.5202C60.2991 46.5202 60.8711 46.6802 61.3351 47.0002C61.7991 47.3122 62.1511 47.7202 62.3911 48.2242C62.6311 48.7202 62.7511 49.2522 62.7511 49.8202C62.7511 50.3802 62.6311 50.9122 62.3911 51.4162C62.1511 51.9202 61.7991 52.3322 61.3351 52.6522C60.8711 52.9642 60.2991 53.1202 59.6191 53.1202ZM59.6191 52.1242C60.0511 52.1242 60.4111 52.0162 60.6991 51.8002C60.9951 51.5762 61.2151 51.2882 61.3591 50.9362C61.5111 50.5842 61.5871 50.2122 61.5871 49.8202C61.5871 49.4202 61.5111 49.0482 61.3591 48.7042C61.2151 48.3522 60.9951 48.0682 60.6991 47.8522C60.4111 47.6282 60.0511 47.5162 59.6191 47.5162C59.1951 47.5162 58.8351 47.6282 58.5391 47.8522C58.2431 48.0682 58.0191 48.3522 57.8671 48.7042C57.7231 49.0482 57.6511 49.4202 57.6511 49.8202C57.6511 50.2122 57.7231 50.5842 57.8671 50.9362C58.0191 51.2882 58.2431 51.5762 58.5391 51.8002C58.8351 52.0162 59.1951 52.1242 59.6191 52.1242ZM59.6191 55.7242C59.3951 55.7242 59.2071 55.6442 59.0551 55.4842C58.9111 55.3322 58.8391 55.1522 58.8391 54.9442C58.8391 54.7282 58.9111 54.5442 59.0551 54.3922C59.2071 54.2402 59.3951 54.1642 59.6191 54.1642C59.8431 54.1642 60.0271 54.2402 60.1711 54.3922C60.3231 54.5442 60.3991 54.7282 60.3991 54.9442C60.3991 55.1602 60.3231 55.3442 60.1711 55.4962C60.0271 55.6482 59.8431 55.7242 59.6191 55.7242Z" fill="#333333"/>
                <path d="M67.3286 53.1202C66.8086 53.1202 66.3526 53.0282 65.9606 52.8442C65.5686 52.6522 65.2406 52.4002 64.9766 52.0882C64.7206 51.7682 64.5246 51.4122 64.3886 51.0202C64.2606 50.6282 64.1966 50.2282 64.1966 49.8202C64.1966 49.4122 64.2606 49.0162 64.3886 48.6322C64.5166 48.2402 64.7086 47.8842 64.9646 47.5642C65.2286 47.2442 65.5566 46.9922 65.9486 46.8082C66.3406 46.6162 66.8006 46.5202 67.3286 46.5202C67.8406 46.5202 68.2646 46.5962 68.6006 46.7482C68.9366 46.9002 69.2046 47.0922 69.4046 47.3242C69.6126 47.5482 69.7646 47.7762 69.8606 48.0082C69.9646 48.2322 70.0326 48.4202 70.0646 48.5722C70.0966 48.7242 70.1126 48.8002 70.1126 48.8002H69.0086C69.0086 48.8002 68.9886 48.7362 68.9486 48.6082C68.9086 48.4722 68.8326 48.3202 68.7206 48.1522C68.6086 47.9842 68.4406 47.8362 68.2166 47.7082C67.9926 47.5722 67.6966 47.5042 67.3286 47.5042C66.8886 47.5042 66.5166 47.6162 66.2126 47.8402C65.9166 48.0562 65.6926 48.3402 65.5406 48.6922C65.3966 49.0442 65.3246 49.4202 65.3246 49.8202C65.3246 50.2202 65.3966 50.5962 65.5406 50.9482C65.6926 51.3002 65.9166 51.5882 66.2126 51.8122C66.5166 52.0282 66.8886 52.1362 67.3286 52.1362C67.6966 52.1362 67.9926 52.0722 68.2166 51.9442C68.4406 51.8082 68.6086 51.6562 68.7206 51.4882C68.8326 51.3202 68.9086 51.1722 68.9486 51.0442C68.9886 50.9082 69.0086 50.8402 69.0086 50.8402H70.1126C70.1126 50.8402 70.0966 50.9162 70.0646 51.0682C70.0326 51.2202 69.9646 51.4122 69.8606 51.6442C69.7646 51.8682 69.6126 52.0962 69.4046 52.3282C69.2046 52.5522 68.9366 52.7402 68.6006 52.8922C68.2646 53.0442 67.8406 53.1202 67.3286 53.1202Z" fill="#333333"/>
                <path d="M74.5616 55.3522V46.6402H75.7016V47.6482H75.7736C75.8696 47.4962 75.9976 47.3322 76.1576 47.1562C76.3256 46.9802 76.5456 46.8322 76.8176 46.7122C77.0896 46.5842 77.4256 46.5202 77.8256 46.5202C78.3056 46.5202 78.7256 46.6162 79.0856 46.8082C79.4456 46.9922 79.7456 47.2442 79.9856 47.5642C80.2256 47.8762 80.4056 48.2282 80.5256 48.6202C80.6456 49.0122 80.7056 49.4122 80.7056 49.8202C80.7056 50.2282 80.6456 50.6282 80.5256 51.0202C80.4056 51.4122 80.2256 51.7682 79.9856 52.0882C79.7456 52.4002 79.4456 52.6522 79.0856 52.8442C78.7256 53.0282 78.3056 53.1202 77.8256 53.1202C77.4256 53.1202 77.0896 53.0562 76.8176 52.9282C76.5456 52.8002 76.3256 52.6482 76.1576 52.4722C75.9976 52.2962 75.8696 52.1362 75.7736 51.9922H75.7016V55.3522H74.5616ZM75.7256 49.8202C75.7256 50.2042 75.7936 50.5762 75.9296 50.9362C76.0736 51.2882 76.2856 51.5802 76.5656 51.8122C76.8536 52.0362 77.2096 52.1482 77.6336 52.1482C78.0656 52.1482 78.4216 52.0362 78.7016 51.8122C78.9896 51.5802 79.2016 51.2882 79.3376 50.9362C79.4816 50.5762 79.5536 50.2042 79.5536 49.8202C79.5536 49.4282 79.4816 49.0562 79.3376 48.7042C79.2016 48.3522 78.9896 48.0642 78.7016 47.8402C78.4216 47.6082 78.0656 47.4922 77.6336 47.4922C77.2096 47.4922 76.8536 47.6082 76.5656 47.8402C76.2856 48.0642 76.0736 48.3522 75.9296 48.7042C75.7936 49.0562 75.7256 49.4282 75.7256 49.8202Z" fill="#333333"/>
                <path d="M82.3898 53.0002V43.8802H83.5298V47.5642H83.6018C83.6578 47.4682 83.7498 47.3362 83.8778 47.1682C84.0138 47.0002 84.2058 46.8522 84.4538 46.7242C84.7018 46.5882 85.0138 46.5202 85.3898 46.5202C85.8538 46.5202 86.2498 46.6282 86.5778 46.8442C86.9058 47.0522 87.1538 47.3362 87.3218 47.6962C87.4978 48.0562 87.5858 48.4602 87.5858 48.9082V53.0002H86.4458V48.9802C86.4458 48.5562 86.3258 48.2042 86.0858 47.9242C85.8538 47.6442 85.5138 47.5042 85.0658 47.5042C84.7058 47.5042 84.4138 47.5962 84.1898 47.7802C83.9658 47.9562 83.7978 48.1922 83.6858 48.4882C83.5818 48.7762 83.5298 49.0842 83.5298 49.4122V53.0002H82.3898Z" fill="#333333"/>
                <path d="M90.5619 45.6802L89.5899 45.6682L90.6219 43.5082H91.7979L90.5619 45.6802ZM89.5179 53.0002V46.6402H90.6579V53.0002H89.5179Z" fill="#333333"/>
                <path d="M38.0073 87.28C36.6073 87.28 35.4126 87.056 34.4233 86.608C33.434 86.16 32.622 85.5907 31.9873 84.9C31.3713 84.2093 30.914 83.4907 30.6153 82.744C30.3353 81.9787 30.1953 81.2787 30.1953 80.644H34.1993C34.1993 80.644 34.2273 80.8027 34.2833 81.12C34.358 81.4373 34.5166 81.8013 34.7593 82.212C35.002 82.6227 35.3753 82.9867 35.8793 83.304C36.3833 83.6213 37.0646 83.78 37.9233 83.78C38.782 83.78 39.4913 83.6027 40.0513 83.248C40.6113 82.8747 41.0313 82.408 41.3113 81.848C41.5913 81.288 41.7313 80.7 41.7313 80.084C41.7313 79.4493 41.5913 78.852 41.3113 78.292C41.0313 77.7133 40.6113 77.2467 40.0513 76.892C39.51 76.5187 38.8286 76.332 38.0073 76.332C37.3726 76.332 36.85 76.4347 36.4393 76.64C36.0286 76.8267 35.702 77.0507 35.4593 77.312C35.2166 77.5547 35.0393 77.7787 34.9273 77.984C34.834 78.1707 34.7873 78.264 34.7873 78.264H30.5313L32.3513 66.28H44.5593V70.032H35.2913L34.5633 74.764H34.6753C34.7686 74.6707 34.9553 74.484 35.2353 74.204C35.534 73.924 35.982 73.6627 36.5793 73.42C37.1766 73.1587 37.97 73.028 38.9593 73.028C40.4526 73.028 41.722 73.364 42.7673 74.036C43.8126 74.708 44.5966 75.576 45.1193 76.64C45.6606 77.6853 45.9313 78.796 45.9313 79.972C45.9313 80.8867 45.7633 81.7733 45.4273 82.632C45.11 83.4907 44.6246 84.2747 43.9713 84.984C43.318 85.6747 42.4966 86.2347 41.5073 86.664C40.518 87.0747 39.3513 87.28 38.0073 87.28Z" fill="#FF6609"/>
                <path d="M57.3453 87.28C55.9639 87.28 54.7319 87 53.6493 86.44C52.5853 85.88 51.6799 85.1147 50.9333 84.144C50.1866 83.1547 49.6173 82.016 49.2253 80.728C48.8519 79.44 48.6653 78.0773 48.6653 76.64C48.6653 75.184 48.8519 73.812 49.2253 72.524C49.6173 71.236 50.1866 70.1067 50.9333 69.136C51.6799 68.1467 52.5853 67.3813 53.6493 66.84C54.7319 66.28 55.9639 66 57.3453 66C58.7266 66 59.9493 66.28 61.0133 66.84C62.0959 67.3813 63.0106 68.1467 63.7573 69.136C64.5039 70.1067 65.0639 71.236 65.4373 72.524C65.8293 73.812 66.0252 75.184 66.0252 76.64C66.0252 78.0773 65.8293 79.44 65.4373 80.728C65.0639 82.016 64.5039 83.1547 63.7573 84.144C63.0106 85.1147 62.0959 85.88 61.0133 86.44C59.9493 87 58.7266 87.28 57.3453 87.28ZM57.3453 83.444C58.5773 83.444 59.5853 82.8747 60.3693 81.736C61.1719 80.5973 61.5732 78.8987 61.5732 76.64C61.5732 74.3813 61.1719 72.6827 60.3693 71.544C59.5853 70.4053 58.5773 69.836 57.3453 69.836C56.1133 69.836 55.0959 70.4053 54.2933 71.544C53.5093 72.6827 53.1173 74.3813 53.1173 76.64C53.1173 78.8987 53.5093 80.5973 54.2933 81.736C55.0959 82.8747 56.1133 83.444 57.3453 83.444Z" fill="#FF6609"/>
                <path d="M73.2827 75.128C72.3121 75.128 71.472 74.9227 70.7627 74.512C70.0721 74.0827 69.5307 73.5227 69.1387 72.832C68.7654 72.1413 68.5787 71.376 68.5787 70.536C68.5787 69.7147 68.7654 68.9587 69.1387 68.268C69.5121 67.5773 70.0534 67.0267 70.7627 66.616C71.472 66.2053 72.3121 66 73.2827 66C74.2721 66 75.1121 66.2053 75.8027 66.616C76.5121 67.0267 77.0534 67.5773 77.4267 68.268C77.8001 68.9587 77.9867 69.7147 77.9867 70.536C77.9867 71.376 77.8001 72.1413 77.4267 72.832C77.0534 73.5227 76.5121 74.0827 75.8027 74.512C75.0934 74.9227 74.2534 75.128 73.2827 75.128ZM71.8267 87L83.4467 66.28H86.8347L75.2427 87H71.8267ZM73.2827 72.608C73.8614 72.608 74.3281 72.412 74.6827 72.02C75.0374 71.6093 75.2147 71.124 75.2147 70.564C75.2147 70.004 75.0374 69.528 74.6827 69.136C74.3281 68.744 73.8614 68.548 73.2827 68.548C72.6854 68.548 72.2094 68.744 71.8547 69.136C71.5 69.528 71.3227 70.004 71.3227 70.564C71.3227 71.124 71.5 71.6093 71.8547 72.02C72.2094 72.412 72.6854 72.608 73.2827 72.608ZM85.4067 87.28C84.4361 87.28 83.5961 87.0747 82.8867 86.664C82.1774 86.2347 81.6361 85.6747 81.2627 84.984C80.8894 84.2933 80.7027 83.5373 80.7027 82.716C80.7027 81.8947 80.8894 81.1387 81.2627 80.448C81.6361 79.7573 82.1774 79.2067 82.8867 78.796C83.5961 78.3667 84.4361 78.152 85.4067 78.152C86.3774 78.152 87.2081 78.3667 87.8987 78.796C88.6081 79.2067 89.1494 79.7573 89.5227 80.448C89.9147 81.1387 90.1107 81.8947 90.1107 82.716C90.1107 83.5373 89.9147 84.2933 89.5227 84.984C89.1494 85.6747 88.6081 86.2347 87.8987 86.664C87.2081 87.0747 86.3774 87.28 85.4067 87.28ZM85.3787 84.76C85.9761 84.76 86.4521 84.564 86.8067 84.172C87.1614 83.78 87.3387 83.2947 87.3387 82.716C87.3387 82.156 87.1614 81.68 86.8067 81.288C86.4521 80.896 85.9761 80.7 85.3787 80.7C84.8001 80.7 84.3334 80.896 83.9787 81.288C83.6241 81.68 83.4467 82.156 83.4467 82.716C83.4467 83.2947 83.6241 83.78 83.9787 84.172C84.3334 84.564 84.8001 84.76 85.3787 84.76Z" fill="#FF6609"/>
                <path d="M83 23.1562L84.1875 21.2188C84.6562 20.4688 85.5 20 86.4062 20H86.5C87.875 20 89 21.125 89 22.5C89 23.0938 88.8125 23.5938 88.5 24H90C91.0938 24 92 24.9062 92 26V34C92 35.125 91.0938 36 90 36H76C74.875 36 74 35.125 74 34V26C74 24.9062 74.875 24 76 24H77.4688C77.1562 23.5938 77 23.0938 77 22.5C77 21.125 78.0938 20 79.5 20H79.5625C80.4688 20 81.3125 20.4688 81.7812 21.2188L83 23.1562ZM86.4062 21C85.8438 21 85.3438 21.3125 85.0312 21.75L83.625 24H86.5C87.3125 24 88 23.3438 88 22.5C88 21.6875 87.3125 21 86.5 21H86.4062ZM82.3438 24L80.9375 21.75C80.625 21.3125 80.125 21 79.5625 21H79.5C78.6562 21 78 21.6875 78 22.5C78 23.3438 78.6562 24 79.5 24H82.3438ZM76 25C75.4375 25 75 25.4688 75 26V29H91V26C91 25.4688 90.5312 25 90 25H84.0625L85.875 27.1875C86.0312 27.4062 86.0312 27.7188 85.8125 27.9062C85.5938 28.0625 85.2812 28.0312 85.0938 27.8438L83 25.2812L80.875 27.8438C80.6875 28.0312 80.375 28.0625 80.1562 27.9062C79.9375 27.7188 79.9375 27.4062 80.0938 27.1875L81.9062 25H76ZM75 30V32H91V30H75ZM91 34V33H75V34C75 34.5625 75.4375 35 76 35H90C90.5312 35 91 34.5625 91 34Z" fill="#333333"/>
                </svg>