<svg width="160" height="160" viewBox="0 0 160 160" fill="none" xmlns="http://www.w3.org/2000/svg">
<path fill-rule="evenodd" clip-rule="evenodd" d="M134.86 137.848C135.604 137.016 136.39 136.137 140 134.975C139.998 134.974 139.995 134.973 139.993 134.972C140.247 134.889 140.516 134.807 140.801 134.721C146.31 133.073 146.474 125.863 144.504 123.892C142.583 121.967 140.695 123.742 139.075 125.266C138.293 126.001 137.573 126.677 136.943 126.851C133.398 127.824 130.6 117.223 134.535 117.586C138.247 117.93 137.969 115.602 137.714 113.474C137.643 112.879 137.573 112.299 137.594 111.798C137.65 110.367 140.11 109.372 143.673 109.31C146.024 109.268 147.72 102.675 149.078 97.3958C149.518 95.6889 149.922 94.1192 150.301 92.9525C151.687 88.6889 149.733 86.6141 147.657 84.4099C147.409 84.1455 147.158 83.8793 146.911 83.6073C144.606 81.0666 142.164 79.291 140.001 79.6318C139.178 79.7629 138.148 79.5001 137.054 79.2211C135.277 78.7681 133.333 78.2721 131.833 79.3497C127.275 82.6279 122.85 82.4264 122.482 77.7414C122.322 75.7032 123.705 73.1859 124.863 71.0784C125.611 69.7161 126.266 68.525 126.349 67.7453C126.557 65.7559 126.51 62.9054 124.22 59.6642C123.372 58.4644 122.448 57.5008 121.623 56.6391C120.22 55.175 119.1 54.0053 119.107 52.4722C119.126 49.3333 118.132 48.3498 117.218 47.445C116.455 46.6903 115.748 45.9904 115.73 44.1402C115.714 42.5972 114.574 38.0545 110.022 36.8277C108.984 36.5481 108.283 36.2556 106.511 35.5159C106.163 35.3705 105.773 35.2078 105.331 35.0245C102.641 33.9089 101.046 29.6203 100.823 27.3275C100.611 25.1221 99.2895 23.654 98.0143 22.2372C97.03 21.1436 96.0733 20.0805 95.6753 18.7326C95.6969 18.6806 95.7186 18.6285 95.7403 18.5765C95.4218 17.3307 95.5794 15.8403 96.6123 13.8666C100.515 6.41777 93.8972 3 90.5855 3C87.6354 3 81.7137 4.78484 82.1841 17.22C82.2359 18.576 80.8436 19.3102 79.1998 20.1771C77.8986 20.8633 76.4397 21.6327 75.415 22.8594C73.8506 24.7319 72.7449 25.1611 71.6642 25.5805C71.1427 25.7829 70.627 25.9831 70.0684 26.3421C68.9647 27.0517 67.6845 29.5737 67.7493 31.3772C67.8142 33.1837 63.9798 36.9639 62.4057 38.1351C55.4884 43.2695 63.4233 56.6738 70.0468 50.3899C77.9538 42.8851 80.1244 53.2716 74.4533 58.6971C70.6665 62.3209 72.7213 66.4205 74.6438 70.2563C76.563 74.0855 78.3505 77.6519 74.0637 80.2198C70.6003 82.2958 64.9848 89.4069 73.7422 96.1402C74.9729 97.0855 73.8875 100.128 73.8875 100.128C71.6339 105.77 74.9463 108.092 77.7942 110.088C79.5105 111.291 81.058 112.376 81.1173 113.998C81.2164 116.644 78.8198 119.141 76.0616 120.148C74.9721 120.547 74.9618 121.656 74.9512 122.787C74.9428 123.686 74.9342 124.599 74.3854 125.183C71.8522 127.882 67.3978 126.551 63.3407 125.339C58.8697 124.002 54.8811 122.81 54.4774 127.315C54.4401 127.734 54.5425 128.22 54.6411 128.687C54.8612 129.731 55.0623 130.685 53.6487 130.606C48.6205 130.324 48.095 133.159 49.4523 136.158C50.4107 138.275 45.123 138.191 43.7191 138.145C40.2246 138.03 35.6173 139.626 37.0026 143.375C37.6734 145.191 37.5125 147.456 34.5997 149.885C32.9359 151.273 35.0512 155.218 37.0827 156.594C39.2163 158.034 41.5912 155.444 42.9456 151.986C43.6331 150.229 44.981 150.349 46.3705 150.472C47.5621 150.577 48.7843 150.686 49.6465 149.615C52.2163 146.427 57.8813 148.912 60.4045 150.102C62.5006 151.094 63.2346 150.11 63.9411 149.163C64.2851 148.702 64.6227 148.249 65.1079 148.038C66.5889 147.391 67.4579 145.739 66.7189 144.227C65.1079 140.936 73.5468 137.965 76.4473 137.556C78.3151 137.292 80.9384 138.33 83.6339 139.397C85.12 139.985 86.6279 140.581 88.0434 140.973C90.9402 141.774 93.258 140.316 95.739 138.755C98.8726 136.784 102.267 134.648 107.416 136.694C109.383 137.475 111.288 137.677 116.622 135.799C118.135 135.266 119.146 137.253 120.204 139.329C121.144 141.176 122.121 143.095 123.518 143.375C125.514 143.774 126.167 142.93 126.778 142.144C127.191 141.61 127.585 141.102 128.364 141.026C130.287 140.837 132.826 139.709 134.14 138.578C134.424 138.335 134.64 138.093 134.86 137.848Z" fill="url(#paint0_linear_7600_43733)"/>
<path fill-rule="evenodd" clip-rule="evenodd" d="M107.237 96.1234C110.774 91.0162 114.042 84.4287 114.042 77.5211C114.042 69.8634 107.507 62 98.5209 62C97.9834 62 97.454 62.0278 96.9345 62.0833C96.9345 62.0833 96.9345 62.0833 96.9345 62.0833C88.7754 62.9412 83 70.3226 83 77.5211C83 87.8531 90.3096 97.4696 94.8956 102.485C96.8447 104.618 100.197 104.618 102.146 102.485C103.666 100.822 105.486 98.6558 107.237 96.1234Z" fill="url(#paint1_linear_7600_43733)"/>
<path fill-rule="evenodd" clip-rule="evenodd" d="M108.855 79.972C108.855 79.972 107.238 78.3644 107.238 77.5213C107.238 76.6897 108.811 75.1141 108.854 75.0714L108.855 75.0705C107.937 71.1739 104.869 68.1058 100.972 67.1875C100.972 67.1875 99.3642 69.1228 98.5211 69.1228C97.678 69.1228 96.0704 67.1875 96.0704 67.1875C95.1572 67.4032 94.2913 67.7365 93.4858 68.1711C93.4859 68.171 93.4859 68.1709 93.4859 68.1708C90.8539 69.5889 88.8901 72.0871 88.1875 75.0704C88.1875 75.0704 89.4821 76.678 89.4821 77.5211C89.4821 78.3642 88.1875 79.9719 88.1875 79.9719C89.1008 83.8438 92.1363 86.8991 95.9984 87.8369C95.9985 87.837 95.9986 87.8371 95.9987 87.8371C96.0215 87.8436 96.046 87.8502 96.0705 87.8551C96.0705 87.8551 97.6782 86.1967 98.5213 86.1967C99.3644 86.1967 100.972 87.8551 100.972 87.8551C104.869 86.937 107.937 83.8687 108.855 79.972Z" fill="white"/>
<path fill-rule="evenodd" clip-rule="evenodd" d="M108.856 79.9718C109.044 79.1859 109.142 78.3642 109.142 77.5211C109.142 76.678 109.044 75.8562 108.856 75.0704H100.973V67.1873C100.187 66.9994 99.365 66.9014 98.5219 66.9014C97.6788 66.9014 96.857 66.9994 96.0712 67.1873V75.0705H92.1829C92.1829 75.0705 92.1829 75.0704 92.1829 75.0704H88.1883C88.0004 75.8562 87.9023 76.6781 87.9023 77.5212C87.9023 78.3642 88.0004 79.1861 88.1883 79.9719H92.624C92.624 79.9719 92.624 79.9719 92.624 79.9718H96.0712V87.8549C96.857 88.0428 97.6788 88.1408 98.5219 88.1408C99.365 88.1408 100.187 88.0428 100.973 87.8549V79.9718H108.856Z" fill="#3EA1D9"/>
<defs>
<linearGradient id="paint0_linear_7600_43733" x1="92.3832" y1="3" x2="92.3832" y2="157" gradientUnits="userSpaceOnUse">
<stop stop-color="#67CBBF"/>
<stop offset="1" stop-color="#31A9DD" stop-opacity="0.19"/>
</linearGradient>
<linearGradient id="paint1_linear_7600_43733" x1="98.521" y1="62" x2="98.521" y2="104.084" gradientUnits="userSpaceOnUse">
<stop stop-color="#D9ECFF" stop-opacity="0.41"/>
<stop offset="1" stop-color="#ABD6FF" stop-opacity="0.29"/>
</linearGradient>
</defs>
</svg>
